HIERARCHY
ROOT Beta:Hips
{
	OFFSET 0.00 0.00 0.00
	CHANNELS 6 Xposition Yposition Zposition Yrotation Xrotation Zrotation
	JOINT Beta:Spine
	{
		OFFSET	0.0000	9.2263	1.5771
		CHANNELS 3 Xrotation Yrotation Zrotation
		JOINT Beta:Spine1
		{
			OFFSET	0.0000	16.2540	-0.1656
			CHANNELS 3 Xrotation Yrotation Zrotation
			JOINT Beta:Spine2
			{
				OFFSET	0.0000	13.6396	-1.2923
				CHANNELS 3 Xrotation Yrotation Zrotation
				JOINT Beta:Neck
				{
					OFFSET	0.0000	13.8774	-4.3542
					CHANNELS 3 Xrotation Yrotation Zrotation
					JOINT Beta:Neck1
					{
						OFFSET	0.0000	4.3400	0.9269
						CHANNELS 3 Xrotation Yrotation Zrotation
						JOINT Beta:Head
						{
							OFFSET	0.0000	4.0266	0.8585
							CHANNELS 3 Xrotation Yrotation Zrotation
							End Site
							{
								OFFSET 0.0000 23.0297 0.1231
							}
						}
					}
				}
				JOINT Beta:LeftShoulder
				{
					OFFSET	6.1442	10.1870	-3.7932
					CHANNELS 3 Zrotation Xrotation Yrotation
					JOINT Beta:LeftArm
					{
						OFFSET	12.3191	-1.1130	-1.7935
						CHANNELS 3 Zrotation Xrotation Yrotation
						JOINT Beta:LeftForeArm
						{
							OFFSET	27.6870	0.0000	0.0000
							CHANNELS 3 Xrotation Zrotation Yrotation
							JOINT Beta:LeftHand
							{
								OFFSET	27.8738	0.0000	0.0000
								CHANNELS 3 Zrotation Yrotation Xrotation
								JOINT Beta:LeftHandThumb1
								{
									OFFSET	2.3785	-1.0029	2.6209
									CHANNELS 3 Zrotation Xrotation Yrotation
									JOINT Beta:LeftHandThumb2
									{
										OFFSET	3.3624	-1.0029	2.8398
										CHANNELS 3 Zrotation Xrotation Yrotation
										JOINT Beta:LeftHandThumb3
										{
											OFFSET	4.5018	-1.3445	2.1783
											CHANNELS 3 Zrotation Xrotation Yrotation
											End Site
											{
												OFFSET 2.6000 -1.0000 1.0000
											}
										}
									}
								}
								JOINT Beta:LeftHandMiddle1
								{
									OFFSET	10.4639	0.6148	0.4298
									CHANNELS 3 Zrotation Xrotation Yrotation
									JOINT Beta:LeftHandMiddle2
									{
										OFFSET	5.7921	0.0000	0.0000
										CHANNELS 3 Zrotation Xrotation Yrotation
										JOINT Beta:LeftHandMiddle3
										{
											OFFSET	3.7132	0.0000	0.0000
											CHANNELS 3 Zrotation Xrotation Yrotation
											End Site
											{
												OFFSET 2.3000 0.0000 0.0000
											}
										}
									}
								}
								JOINT Beta:LeftHandIndex1
								{
									OFFSET	10.3945	0.6148	2.7055
									CHANNELS 3 Zrotation Xrotation Yrotation
									JOINT Beta:LeftHandIndex2
									{
										OFFSET	5.5493	0.0000	0.0000
										CHANNELS 3 Zrotation Xrotation Yrotation
										JOINT Beta:LeftHandIndex3
										{
											OFFSET	3.3911	0.0000	0.0000
											CHANNELS 3 Zrotation Xrotation Yrotation
											End Site
											{
												OFFSET 2.5000 0.0000 0.0000
											}
										}
									}
								}
								JOINT Beta:LeftHandRing1
								{
									OFFSET	10.3252	0.3211	-1.8755
									CHANNELS 3 Zrotation Xrotation Yrotation
									JOINT Beta:LeftHandRing2
									{
										OFFSET	5.4452	0.0000	0.0000
										CHANNELS 3 Zrotation Xrotation Yrotation
										JOINT Beta:LeftHandRing3
										{
											OFFSET	3.7132	0.0000	0.0000
											CHANNELS 3 Zrotation Xrotation Yrotation
											End Site
											{
												OFFSET 2.0000 0.0000 0.0000
											}
										}
									}
								}
								JOINT Beta:LeftHandPinky1
								{
									OFFSET	10.0130	-0.0783	-3.9671
									CHANNELS 3 Zrotation Xrotation Yrotation
									JOINT Beta:LeftHandPinky2
									{
										OFFSET	3.6763	0.0000	0.0000
										CHANNELS 3 Zrotation Xrotation Yrotation
										JOINT Beta:LeftHandPinky3
										{
											OFFSET	2.8113	0.0000	0.0000
											CHANNELS 3 Zrotation Xrotation Yrotation
											End Site
											{
												OFFSET 2.9000 0.0000 0.0000
											}
										}
									}
								}
							}
						}
					}
				}
				JOINT Beta:RightShoulder
				{
					OFFSET	-6.1402	10.1870	-3.7932
					CHANNELS 3 Zrotation Xrotation Yrotation
					JOINT Beta:RightArm
					{
						OFFSET	-12.3231	-1.1130	-1.7935
						CHANNELS 3 Zrotation Xrotation Yrotation
						JOINT Beta:RightForeArm
						{
							OFFSET	-27.6870	0.0000	0.0000
							CHANNELS 3 Xrotation Zrotation Yrotation
							JOINT Beta:RightHand
							{
								OFFSET	-27.8738	0.0000	0.0000
								CHANNELS 3 Zrotation Yrotation Xrotation
								JOINT Beta:RightHandThumb1
								{
									OFFSET	-2.5178	-0.9367	2.5137
									CHANNELS 3 Zrotation Xrotation Yrotation
									JOINT Beta:RightHandThumb2
									{
										OFFSET	-3.2638	-1.0870	2.9669
										CHANNELS 3 Zrotation Xrotation Yrotation
										JOINT Beta:RightHandThumb3
										{
											OFFSET	-4.4165	-1.3703	2.1350
											CHANNELS 3 Zrotation Xrotation Yrotation
											End Site
											{
												OFFSET -2.6000 -1.0000 1.0000
											}
										}
									}
								}
								JOINT Beta:RightHandIndex1
								{
									OFFSET	-10.4665	0.4896	2.7120
									CHANNELS 3 Zrotation Xrotation Yrotation
									JOINT Beta:RightHandIndex2
									{
										OFFSET	-5.3768	0.0000	0.0000
										CHANNELS 3 Zrotation Xrotation Yrotation
										JOINT Beta:RightHandIndex3
										{
											OFFSET	-3.3855	0.0000	0.0000
											CHANNELS 3 Zrotation Xrotation Yrotation
											End Site
											{
												OFFSET -2.6000 0.0000 0.0000
											}
										}
									}
								}
								JOINT Beta:RightHandMiddle1
								{
									OFFSET	-10.7596	0.4896	0.4278
									CHANNELS 3 Zrotation Xrotation Yrotation
									JOINT Beta:RightHandMiddle2
									{
										OFFSET	-5.6168	0.0000	0.0000
										CHANNELS 3 Zrotation Xrotation Yrotation
										JOINT Beta:RightHandMiddle3
										{
											OFFSET	-3.7364	0.0000	0.0000
											CHANNELS 3 Zrotation Xrotation Yrotation
											End Site
											{
												OFFSET -2.3000 0.0000 0.0000
											}
										}
									}
								}
								JOINT Beta:RightHandRing1
								{
									OFFSET	-10.4702	0.3879	-1.9363
									CHANNELS 3 Zrotation Xrotation Yrotation
									JOINT Beta:RightHandRing2
									{
										OFFSET	-5.4013	0.0000	0.0000
										CHANNELS 3 Zrotation Xrotation Yrotation
										JOINT Beta:RightHandRing3
										{
											OFFSET	-3.3916	0.0000	0.0000
											CHANNELS 3 Zrotation Xrotation Yrotation
											End Site
											{
												OFFSET -2.2000 0.0000 0.0000
											}
										}
									}
								}
								JOINT Beta:RightHandPinky1
								{
									OFFSET	-9.9715	-0.1191	-3.9540
									CHANNELS 3 Zrotation Xrotation Yrotation
									JOINT Beta:RightHandPinky2
									{
										OFFSET	-3.6528	0.0000	0.0000
										CHANNELS 3 Zrotation Xrotation Yrotation
										JOINT Beta:RightHandPinky3
										{
											OFFSET	-2.7820	0.0000	0.0000
											CHANNELS 3 Zrotation Xrotation Yrotation
											End Site
											{
												OFFSET -2.9000 0.0000 0.0000
											}
										}
									}
								}
							}
						}
					}
				}
			}
		}
	}
	JOINT Beta:LeftUpLeg
	{
		OFFSET	9.6338	-3.2733	0.0000
		CHANNELS 3 Xrotation Yrotation Zrotation
		JOINT Beta:LeftLeg
		{
			OFFSET	0.0000	-41.7300	-1.7300
			CHANNELS 3 Xrotation Yrotation Zrotation
			JOINT Beta:LeftFoot
			{
				OFFSET	0.0126	-39.1900	-0.8477
				CHANNELS 3 Xrotation Yrotation Zrotation
				JOINT Beta:LeftToeBase
				{
					OFFSET	-0.1833	-12.1931	8.2823
					CHANNELS 3 Xrotation Yrotation Zrotation
					End Site
					{
						OFFSET 0.0000 0.0000 10.1681
					}
				}
			}
		}
	}
	JOINT Beta:RightUpLeg
	{
		OFFSET	-9.6338	-3.2733	0.0000
		CHANNELS 3 Xrotation Yrotation Zrotation
		JOINT Beta:RightLeg
		{
			OFFSET	0.0000	-41.7300	-1.7300
			CHANNELS 3 Xrotation Yrotation Zrotation
			JOINT Beta:RightFoot
			{
				OFFSET	0.0126	-39.1900	-0.8477
				CHANNELS 3 Xrotation Yrotation Zrotation
				JOINT Beta:RightToeBase
				{
					OFFSET	-0.1833	-12.1931	8.2823
					CHANNELS 3 Xrotation Yrotation Zrotation
					End Site
					{
						OFFSET 0.0032 0.0000 10.1681
					}
				}
			}
		}
	}
}
MOTION
Frames: 4
Frame Time: 0.0333333
-0.0000 94.2799 -0.0000 65.9009 7.4548 -1.4933 6.0417 -7.6185 1.5423 4.3109 -5.0800 1.4912 4.2866 -5.1078 1.4743 4.9785 -6.0112 -0.3212 -0.0000 0.0000 -0.0000 -6.1704 -35.3500 5.9361 -9.4798 1.9320 -7.9219 -44.4777 30.1842 -28.4879 0.0000 -0.0000 -15.5889 1.3083 1.9190 5.7985 -5.5542 6.6080 7.3220 17.2292 8.7081 -4.7435 10.9297 10.0000 -10.0670 -28.6316 -0.0000 -1.6034 -18.5845 0.0000 0.0000 -11.1089 0.0000 -0.0000 -22.2593 0.0000 -5.6491 -12.0824 -0.0000 -0.0000 -12.3253 0.0000 0.0000 -30.3241 0.0000 2.0256 -23.2926 0.0000 -0.0000 -19.7248 0.0000 -0.0000 -33.7485 -0.0026 -0.4001 -24.1165 0.0000 -0.0000 -15.9446 -0.0000 -0.0000 9.8382 0.3491 -1.4717 62.6280 16.7488 7.6501 -0.0000 -0.0000 10.8807 5.8871 3.9618 10.6915 -21.1938 36.1341 12.3699 6.6672 2.7639 -6.9321 1.8996 -10.0000 -3.2034 19.3441 0.0080 10.8640 28.7470 0.0000 -0.0000 18.3146 0.0000 -0.0000 33.9168 0.0000 3.6181 25.1518 -0.0000 -0.0000 20.9397 0.0000 -0.0000 30.0885 0.0000 1.7430 32.1762 0.0000 0.0000 33.9604 0.0000 0.0000 27.0982 -0.0155 1.7656 23.3636 -0.0000 -0.0000 24.9901 0.0000 -0.0000 -33.0875 13.0566 6.8491 62.1885 -1.8137 -0.2664 -4.1641 -0.2037 2.2708 -8.9757 -0.0000 0.0000 -24.2911 -1.3242 0.7185 25.1901 6.1566 0.0780 -8.3454 0.8341 -0.5601 -6.0108 0.0000 0.0000 
4.5711 94.8435 0.4185 66.0728 7.6078 -0.2659 5.8536 -7.3530 -0.0609 4.2883 -4.7814 0.9604 4.2586 -4.8148 0.9412 4.8058 -6.0439 -0.3736 -0.0000 0.0000 -0.0000 -5.8182 -35.5174 6.3439 -9.6243 1.9858 -7.3827 -44.9790 29.3981 -23.8059 0.0000 -0.0000 -16.5375 1.1433 0.0117 4.3086 -5.5542 6.6080 7.3220 17.7170 6.6865 -5.1219 10.5735 10.0000 -9.2368 -28.1453 -0.0000 -1.9778 -18.5526 0.0000 0.0000 -11.0768 0.0000 0.0000 -21.4485 0.0000 -6.1160 -12.0598 0.0000 -0.0000 -12.3025 0.0000 0.0000 -29.7548 0.0000 1.9840 -23.3984 -0.0000 -0.0000 -19.8320 -0.0000 0.0000 -33.3140 -0.0026 -0.4368 -24.2258 0.0000 0.0000 -16.0587 0.0000 -0.0000 9.6339 0.2793 -0.8663 63.1853 17.3217 8.7672 -0.0000 -0.0000 13.1926 6.3346 4.7088 10.8929 -21.1938 36.1341 12.3699 6.8017 2.5957 -7.6110 1.8976 -10.0000 -3.2116 19.2388 0.0080 10.7690 28.8344 0.0000 -0.0000 18.4029 -0.0000 -0.0000 33.8230 0.0000 3.6181 25.1276 0.0000 -0.0000 20.9153 -0.0000 0.0000 30.1926 -0.0000 1.7631 32.1601 0.0000 -0.0000 33.9441 0.0000 0.0000 26.9400 -0.0155 1.7058 23.1788 0.0000 -0.0000 24.8645 0.0000 0.0000 -36.3169 11.5262 7.0802 52.8784 -1.3706 -0.2506 -5.2750 0.1147 -1.2387 -7.9512 0.0000 -0.0000 -20.3486 -0.9464 -1.5570 23.1371 6.3774 0.0781 -10.5531 0.8496 0.3402 -6.0108 0.0000 0.0000 
9.2407 94.8281 0.7356 65.7648 7.8684 -0.1762 5.7887 -6.6483 -0.4362 4.2578 -4.5837 0.6376 4.2308 -4.6143 0.6127 4.5606 -6.0731 -0.5300 -0.0000 0.0000 -0.0000 -6.0238 -35.8224 6.7350 -9.6979 2.0652 -6.8039 -46.3517 28.8200 -18.7225 0.0000 -0.0000 -18.6675 0.8719 -1.1216 2.5929 -5.5542 6.6080 7.3220 17.8802 6.2790 -5.4740 10.4932 10.0000 -9.0722 -27.9876 -0.0000 -2.0025 -18.5412 -0.0000 -0.0000 -11.0654 -0.0000 -0.0000 -21.1928 -0.0000 -6.2250 -12.0649 0.0000 -0.0000 -12.3078 -0.0000 -0.0000 -29.5837 -0.0000 2.0206 -23.4256 0.0000 0.0000 -19.8593 -0.0000 -0.0000 -33.1261 -0.0026 -0.4252 -24.2359 -0.0000 -0.0000 -16.0691 0.0000 -0.0000 9.5155 0.2010 -0.1193 63.2052 17.6334 9.9874 -0.0000 0.0000 15.6559 6.6525 5.2421 11.6273 -21.1938 36.1341 12.3699 7.0908 3.1100 -7.7133 1.8807 -10.0000 -3.1657 20.1073 0.0080 10.7533 28.9001 0.0000 -0.0000 18.4693 0.0000 -0.0000 34.2131 0.0000 3.6085 25.1484 0.0000 0.0000 20.9363 -0.0000 -0.0000 30.6460 0.0000 1.8828 32.1259 0.0000 0.0000 33.9094 -0.0000 -0.0000 27.2242 -0.0155 2.1591 23.3039 -0.0000 -0.0000 24.8744 -0.0000 -0.0000 -37.9638 9.3303 8.1580 40.3019 -0.6651 -0.2132 -4.9992 0.1555 -2.4060 -6.9833 0.0000 -0.0000 -16.9109 -1.0589 -2.8612 21.8336 6.8290 0.0784 -13.0997 1.0121 1.2324 -6.0108 0.0000 -0.0000 
14.2192 94.2136 0.9568 64.9943 8.1287 -1.1927 5.7469 -5.4533 0.4167 4.1554 -4.3804 0.6015 4.1401 -4.3982 0.5753 4.1806 -6.1172 -0.7464 -0.0000 0.0000 -0.0000 -6.5225 -36.1435 6.8897 -9.7361 2.1653 -6.1914 -48.3990 28.2866 -13.5025 -0.0000 0.0000 -21.4172 0.5823 -1.2800 1.2539 -5.5542 6.6080 7.3220 17.7885 7.0756 -5.9501 10.5437 10.0000 -9.2892 -28.0224 -0.0000 -1.8279 -18.5482 0.0000 -0.0000 -11.0725 0.0000 -0.0000 -21.3043 0.0000 -6.1346 -12.0820 -0.0000 -0.0000 -12.3249 0.0000 0.0000 -29.6628 -0.0000 2.0816 -23.3880 -0.0000 -0.0000 -19.8208 -0.0000 0.0000 -33.1259 -0.0026 -0.4729 -24.1652 -0.0000 0.0000 -15.9956 -0.0000 0.0000 9.3399 0.1191 0.7285 62.4821 17.5178 11.1200 -0.0000 -0.0000 18.1926 6.7880 5.6019 12.4387 -21.1938 36.1341 12.3699 7.6155 4.3355 -7.3546 1.8492 -10.0000 -3.0612 22.1003 0.0080 10.7561 28.8911 -0.0000 -0.0000 18.4602 -0.0000 0.0000 35.0314 0.0000 3.5577 25.2355 -0.0000 -0.0000 21.0244 0.0000 0.0000 31.5476 0.0000 2.1606 32.0397 0.0000 0.0000 33.8216 0.0000 0.0000 27.7058 -0.0155 3.0008 23.3707 -0.0000 -0.0000 24.9871 0.0000 -0.0000 -37.9075 6.7935 10.7409 25.3715 -1.4351 -0.1146 -5.0489 0.5241 -6.8145 -4.5583 0.0000 0.0000 -13.7582 -1.3710 -3.2915 21.3554 7.4434 0.0787 -16.2088 1.3246 2.2068 -6.0108 0.0001 0.0000 
